<svg width="1260" height="1260" viewBox="0 0 1260 1260" fill="none" xmlns="http://www.w3.org/2000/svg">
    <g filter="url(#filter0_d_1917_1311)">
        <rect x="180" y="180" width="900" height="900" rx="100" fill="#5865F2" />
        <g clip-path="url(#clip0_1917_1311)">
            <path d="M825.493 469.644H739.776C739.976 467.445 740.076 465.147 740.076 462.748C740.049 439.219 730.683 416.661 714.033 400.023C697.382 383.385 674.806 374.026 651.258 374C627.693 374 605.092 383.347 588.42 399.988C571.747 416.628 562.367 439.201 562.341 462.748C562.341 465.147 562.441 467.445 562.641 469.644H481.825C472.134 469.67 462.848 473.536 456.004 480.393C449.161 487.25 445.318 496.539 445.318 506.223V572.584C395.008 575.182 355 618.257 355 671.026C355 723.795 395.008 766.87 445.318 769.468V849.521C445.318 859.196 449.164 868.475 456.011 875.316C462.857 882.157 472.143 886 481.825 886H556.74C556.64 884.901 556.64 883.701 556.64 882.502C556.64 826.435 600.148 780.962 653.859 780.962C707.57 780.962 750.978 826.435 750.978 882.502C750.978 883.701 750.978 884.901 750.878 886H825.493C830.291 886.013 835.044 885.079 839.479 883.25C843.914 881.422 847.944 878.735 851.337 875.345C854.729 871.955 857.418 867.929 859.248 863.497C861.078 859.065 862.013 854.316 862 849.521V506.223C862.013 501.424 861.079 496.669 859.25 492.232C857.421 487.795 854.734 483.762 851.343 480.364C847.951 476.966 843.922 474.27 839.487 472.43C835.051 470.591 830.295 469.644 825.493 469.644ZM565.642 671.126C554.739 671.126 544.283 666.798 536.574 659.095C528.864 651.392 524.533 640.944 524.533 630.05C524.533 624.656 525.597 619.314 527.663 614.331C529.728 609.347 532.756 604.819 536.574 601.005C540.391 597.191 544.923 594.165 549.91 592.101C554.898 590.036 560.243 588.974 565.642 588.974C576.544 588.974 587 593.302 594.709 601.005C602.419 608.708 606.75 619.156 606.75 630.05C606.75 640.944 602.419 651.392 594.709 659.095C587 666.798 576.544 671.126 565.642 671.126ZM730.674 671.126C725.267 671.139 719.911 670.086 714.912 668.028C709.913 665.97 705.369 662.946 701.542 659.13C697.714 655.315 694.677 650.782 692.605 645.792C690.533 640.802 689.466 635.453 689.466 630.05C689.466 624.647 690.533 619.298 692.605 614.308C694.677 609.318 697.714 604.785 701.542 600.969C705.369 597.154 709.913 594.13 714.912 592.072C719.911 590.014 725.267 588.961 730.674 588.974C741.577 588.974 752.033 593.302 759.742 601.005C767.451 608.708 771.782 619.156 771.782 630.05C771.782 635.444 770.719 640.785 768.653 645.769C766.587 650.753 763.559 655.281 759.742 659.095C755.925 662.909 751.393 665.935 746.405 667.999C741.418 670.063 736.073 671.126 730.674 671.126Z" fill="white" />
        </g>
    </g>
    <defs>
        <filter id="filter0_d_1917_1311" x="0" y="0" width="1260" height="1260" filterUnits="userSpaceOnUse" color-interpolation-filters="sRGB">
            <feFlood flood-opacity="0" result="BackgroundImageFix" />
            <feColorMatrix in="SourceAlpha" type="matrix" values="0 0 0 0 0 0 0 0 0 0 0 0 0 0 0 0 0 0 127 0" result="hardAlpha" />
            <feOffset />
            <feGaussianBlur stdDeviation="90" />
            <feComposite in2="hardAlpha" operator="out" />
            <feColorMatrix type="matrix" values="0 0 0 0 0 0 0 0 0 0 0 0 0 0 0 0 0 0 0.06 0" />
            <feBlend mode="normal" in2="BackgroundImageFix" result="effect1_dropShadow_1917_1311" />
            <feBlend mode="normal" in="SourceGraphic" in2="effect1_dropShadow_1917_1311" result="shape" />
        </filter>
        <clipPath id="clip0_1917_1311">
            <rect width="507" height="512" fill="white" transform="translate(355 374)" />
        </clipPath>
    </defs>
</svg>
    