<svg width="262" height="60" viewBox="0 0 262 60" fill="none" xmlns="http://www.w3.org/2000/svg">
    <g clip-path="url(#clip0_1860_2553)">
    <path d="M46.6708 20.4907H71.9433C72.9554 20.4754 73.9226 20.0717 74.6441 19.3633C75.3655 18.6549 75.7857 17.6964 75.8172 16.687C75.7863 15.6717 75.3683 14.7064 74.6484 13.9882C73.9284 13.2699 72.9609 12.8528 71.9433 12.822H46.6708C46.1253 12.753 45.5714 12.8007 45.0458 12.9619C44.5202 13.123 44.035 13.3939 43.6225 13.7566C43.21 14.1194 42.8795 14.5655 42.6532 15.0655C42.4269 15.5655 42.3098 16.1078 42.3098 16.6564C42.3098 17.205 42.4269 17.7473 42.6532 18.2473C42.8795 18.7472 43.21 19.1934 43.6225 19.5561C44.035 19.9188 44.5202 20.1898 45.0458 20.3509C45.5714 20.5121 46.1253 20.5597 46.6708 20.4907V20.4907Z" fill="#FF7777"/>
    <path d="M43.4119 17.8527V41.0429C43.4119 44.049 43.5349 47.4232 45.3181 49.9999C46.4066 51.7133 48.1312 52.9266 50.1143 53.3742C52.1435 53.865 54.2957 53.4968 56.3863 53.3128L69.4837 52.0245C70.4882 51.9877 71.447 51.5964 72.1893 50.9202C72.5427 50.565 72.8224 50.1437 73.0123 49.6805C73.2023 49.2173 73.2987 48.7212 73.2961 48.2208C73.2346 46.3189 71.5744 44.1717 69.4837 44.3558L58.6615 45.3987L53.3733 45.8895H51.959C51.5286 45.8895 51.5901 45.8895 52.1435 45.9508C52.6969 46.0122 51.5901 45.7668 51.5901 45.8281C51.5901 45.8895 52.5124 46.3189 52.0205 45.9508L51.6516 45.7668C51.1597 45.5214 52.082 46.0122 52.0205 46.0735C51.959 46.1349 51.7131 45.7055 51.6516 45.7055C51.5901 45.7055 52.082 46.319 51.8976 46.0122L51.7131 45.7055L51.5286 45.276C51.2826 44.9079 51.7746 46.1349 51.6516 45.7055C51.5286 45.276 51.3441 44.4785 51.2212 43.865C51.0982 43.2515 51.1597 43.1901 51.2212 44.2944V43.9263C51.1702 43.6637 51.1495 43.3961 51.1597 43.1288C51.0982 42.3926 51.0982 41.595 51.0982 40.8588V17.8527C51.0982 15.8895 49.315 13.9263 47.2243 14.049C46.2132 14.049 45.2435 14.4498 44.5285 15.1631C43.8136 15.8764 43.4119 16.8439 43.4119 17.8527V17.8527Z" fill="#FF7777"/>
    <path d="M49.0691 36.687H67.1472C69.1149 36.687 71.0826 34.9692 70.9596 32.8833C70.9598 31.8687 70.5601 30.8948 69.8468 30.1717C69.1336 29.4486 68.164 29.0344 67.1472 29.0182H49.0691C48.1336 29.1366 47.2734 29.5913 46.6498 30.2972C46.0263 31.0031 45.6823 31.9117 45.6823 32.8526C45.6823 33.7935 46.0263 34.7021 46.6498 35.408C47.2734 36.1139 48.1336 36.5687 49.0691 36.687V36.687Z" fill="#FF7777"/>
    <path d="M90.452 50.552C90.7594 44.5397 89.8371 38.5274 90.2675 32.5152C90.329 32.1471 90.329 31.779 90.3905 31.4722C90.452 31.1655 90.452 31.0428 90.452 30.8587C90.452 30.6747 90.329 31.7176 90.452 30.9814C90.575 30.2452 90.6365 29.9385 90.7594 29.4477C91.0146 28.3362 91.3643 27.2484 91.8048 26.1961V26.1961L92.1122 25.5213L92.9731 23.9875L93.8339 22.6992C94.2029 22.2084 93.6495 22.9446 93.6495 23.006L93.8954 22.6378L94.4488 22.0243C94.8178 21.6562 95.1252 21.2881 95.4942 20.9814C95.8631 20.6746 96.5395 20.2452 95.5557 20.9201L96.2321 20.4293C96.6623 20.1478 97.1147 19.9016 97.5848 19.6931L97.8308 19.509L97.4619 19.6931L98.2612 19.3863L99.7985 19.0182H99.3681C99.491 19.0796 99.737 19.0182 99.86 19.0182C99.983 19.0182 100.659 19.1409 100.905 19.0182C101.151 18.8955 100.229 18.8955 100.659 19.0182L101.151 19.1409C101.643 19.2023 101.213 19.3863 100.967 19.0182L101.274 19.2023C101.459 19.2636 101.828 19.6317 101.397 19.2636C101.679 19.5139 101.946 19.7801 102.197 20.0611C102.504 20.3679 102.012 19.8158 102.012 19.7544C102.08 19.9049 102.163 20.0487 102.258 20.1839L102.75 20.9201C103.18 21.4722 103.488 22.0857 103.857 22.6378C104.226 23.19 105.025 24.9078 105.579 26.0734C106.132 27.2391 105.271 25.3372 105.456 25.828C105.524 25.9398 105.566 26.0657 105.579 26.1961L105.948 27.1164C106.193 27.7912 106.439 28.4047 106.624 29.0796C106.808 29.7544 107.362 31.4722 107.669 32.7605C107.977 34.0489 108.284 35.5826 108.469 37.055L108.838 39.0796C108.899 39.8158 108.776 38.8955 108.776 38.8342C108.827 39.0345 108.848 39.2413 108.838 39.4477C108.905 39.7916 108.946 40.1403 108.961 40.4906C109.329 43.4354 109.514 46.4415 109.76 49.3863C110.006 52.3311 111.42 53.3127 113.572 53.2514C115.724 53.19 117.569 51.5336 117.446 49.3863C117.016 43.5581 116.585 37.6685 115.356 31.963C114.126 26.2575 112.097 20.6747 108.715 16.0121C107.608 14.5397 106.439 13.1286 104.718 12.3311C102.976 11.5064 101.037 11.1875 99.1221 11.4109C96.2043 11.7239 93.4339 12.8508 91.1284 14.6624C86.8856 17.9139 84.18 23.0059 83.1962 28.1593C81.7204 35.5826 83.1347 43.006 82.7657 50.4906C82.7657 50.9901 82.8643 51.4847 83.0559 51.9462C83.2475 52.4077 83.5283 52.827 83.8823 53.1802C84.2364 53.5334 84.6566 53.8136 85.1192 54.0047C85.5817 54.1959 86.0775 54.2943 86.5781 54.2943C87.595 54.2944 88.5711 53.8956 89.2958 53.184C90.0206 52.4724 90.4358 51.505 90.452 50.4906V50.552Z" fill="#FF7777"/>
    <path d="M89.2222 35.6441C92.9116 35.4601 96.601 35.276 100.29 35.2147C103.961 35.081 107.636 35.163 111.297 35.4601C113.326 35.7055 115.233 33.5582 115.171 31.6564C115.11 29.7546 113.449 28.0368 111.297 27.7914C107.636 27.4943 103.961 27.4123 100.29 27.546C96.601 27.6073 92.9116 27.7914 89.2222 27.9754C87.1931 28.0981 85.2869 29.6932 85.4098 31.8404C85.5328 33.9877 87.0701 35.7668 89.2222 35.6441V35.6441Z" fill="#FF7777"/>
    <path d="M196.338 20.2454H216.814C218.782 20.2454 220.75 18.5276 220.627 16.4417C220.627 15.4272 220.227 14.4533 219.514 13.7302C218.801 13.0071 217.831 12.5928 216.814 12.5767H196.338C195.793 12.5077 195.239 12.5554 194.713 12.7165C194.187 12.8777 193.702 13.1486 193.29 13.5113C192.877 13.874 192.547 14.3202 192.32 14.8202C192.094 15.3201 191.977 15.8625 191.977 16.4111C191.977 16.9596 192.094 17.5019 192.32 18.0019C192.547 18.5019 192.877 18.948 193.29 19.3107C193.702 19.6735 194.187 19.9444 194.713 20.1056C195.239 20.2667 195.793 20.3144 196.338 20.2454Z" fill="#FF7777"/>
    <path d="M202.487 17.914V50.7975C202.487 52.822 204.27 54.7239 206.299 54.6012C207.316 54.6013 208.292 54.2025 209.017 53.4909C209.742 52.7793 210.157 51.8119 210.173 50.7975V17.914C210.173 15.9508 208.39 13.9877 206.299 14.1104C205.799 14.1104 205.303 14.2087 204.84 14.3999C204.378 14.591 203.958 14.8712 203.604 15.2244C203.25 15.5776 202.969 15.9969 202.777 16.4584C202.586 16.9199 202.487 17.4145 202.487 17.914V17.914Z" fill="#FF7777"/>
    <path d="M196.338 54.6012H220.319C222.287 54.6012 224.255 52.8834 224.132 50.7975C224.132 49.783 223.732 48.8091 223.019 48.086C222.306 47.3629 221.336 46.9486 220.319 46.9325H196.338C195.793 46.8635 195.239 46.9112 194.713 47.0723C194.187 47.2335 193.702 47.5044 193.29 47.8671C192.877 48.2298 192.547 48.676 192.32 49.176C192.094 49.6759 191.977 50.2183 191.977 50.7669C191.977 51.3155 192.094 51.8577 192.32 52.3577C192.547 52.8577 192.877 53.3038 193.29 53.6666C193.702 54.0293 194.187 54.3002 194.713 54.4614C195.239 54.6225 195.793 54.6702 196.338 54.6012Z" fill="#FF7777"/>
    <path d="M236.983 50.9815C236.41 44.9662 236.143 38.9257 236.184 32.8833C236.184 31.4109 236.245 29.8772 236.368 28.4048L236.552 26.1962C236.566 25.8459 236.608 25.4973 236.675 25.1533C236.666 24.9671 236.687 24.7806 236.737 24.6011C236.798 23.8649 236.675 25.0919 236.737 24.6011C236.894 23.358 237.141 22.1279 237.475 20.9201C237.659 20.1226 237.106 21.5337 237.413 21.0429L237.782 20.3067C237.844 20.184 238.09 19.9386 237.721 20.4294C237.352 20.9202 237.598 20.5521 237.721 20.4294C237.844 20.3067 238.151 20.0613 237.659 20.4294C237.167 20.7975 237.659 20.4293 237.659 20.4907L237.167 20.6747C237.598 20.552 236.184 20.7361 236.675 20.7361C237.167 20.7361 235.938 20.4907 236.552 20.7361L236.306 20.6134L236.552 20.7974C236.983 21.0428 236.061 20.2453 236.306 20.6134C236.552 20.9815 236.368 20.6748 236.184 20.4294C236.675 21.1656 237.229 21.8404 237.659 22.6379C238.679 24.3652 239.603 26.1471 240.426 27.9754C242.333 32.0244 243.993 36.1962 245.899 40.3066C247.805 44.4171 250.695 49.5091 254.262 53.1901C254.803 53.7174 255.487 54.075 256.23 54.2188C256.973 54.3625 257.741 54.2862 258.441 53.9991C259.141 53.712 259.741 53.2268 260.167 52.6033C260.594 51.9799 260.828 51.2454 260.841 50.4907C261.517 41.7791 261.64 33.1287 261.64 24.4171V16.9324C261.641 15.9179 261.241 14.944 260.528 14.2209C259.814 13.4978 258.845 13.0835 257.828 13.0674C256.81 13.0982 255.843 13.5153 255.123 14.2335C254.403 14.9518 253.985 15.9171 253.954 16.9324C253.893 25.3373 254.077 33.8036 253.647 42.2698C253.524 44.9692 253.401 47.73 253.155 50.4907L259.734 47.7913L258.627 46.5643C258.431 46.3883 258.264 46.181 258.135 45.9508L257.89 45.7054L258.074 45.9508C257.398 45.0306 256.783 44.1103 256.168 43.1287C254.9 41.0896 253.751 38.9798 252.724 36.8097C250.695 32.5153 248.973 28.0981 246.944 23.8036C246.058 21.9126 245.073 20.0695 243.993 18.2821C243.403 17.1949 242.68 16.1851 241.841 15.276C241.154 14.5716 240.331 14.013 239.422 13.6335C238.514 13.254 237.538 13.0614 236.552 13.0674C232.925 13.2514 230.711 16.3189 229.85 19.5704C229.468 21.2712 229.181 22.9916 228.989 24.7238C228.805 26.3189 228.682 27.914 228.62 29.4478C228.19 36.6257 228.743 43.8649 229.297 50.9815C229.481 53.006 230.957 54.9079 233.17 54.8465C235.384 54.7852 237.167 53.1287 236.983 50.9815V50.9815Z" fill="#FF7777"/>
    <path d="M151.327 0.122653C151.327 0.122653 130.175 -2.1473 126.977 15.276C123.78 32.6993 133.311 33.6196 135.586 44.2331C137.861 54.8466 140.198 59.7545 149.667 59.9999C159.137 60.2453 160.674 49.141 163.318 43.4355C165.962 37.73 172.542 30.8588 173.095 17.73C173.648 4.60117 160.059 0.6748 151.327 0.122653Z" fill="#FF7777"/>
    <path d="M136.939 14.6625C136.939 14.6625 152.557 16.1962 162.457 14.6625" stroke="white" stroke-width="8" stroke-miterlimit="10" stroke-linecap="round"/>
    <path d="M149.729 15.3373L148.622 48.3435" stroke="white" stroke-width="8" stroke-miterlimit="10" stroke-linecap="round"/>
    <path d="M7.68622 50.9815V20.6747C7.68622 19.9385 7.74771 19.141 7.68622 18.4048C7.99367 21.7177 4.7962 21.9017 3.25894 21.1042C3.75086 21.3496 3.01298 20.9201 2.95149 20.8588C2.89 20.7974 3.68938 21.4723 3.93534 21.779C5.0021 22.782 6.0082 23.8472 6.94835 24.9692L7.74772 25.8894L8.05517 26.2576C8.60858 26.9938 7.56325 25.5827 8.11666 26.3189L9.46945 28.2821C10.404 29.6351 11.2463 31.0494 11.9905 32.5152C13.4048 35.1533 17.2172 34.9079 18.6315 32.5152C20.0458 30.1226 21.583 27.7299 23.1818 25.3986L24.3501 23.8036C24.6575 23.4355 24.596 23.4968 24.2886 23.9263L24.596 23.4968L25.2724 22.6379C26.2131 21.5358 27.2193 20.491 28.2854 19.5091L21.829 17.8526C22.3398 19.1068 22.751 20.3992 23.0588 21.7177L23.4277 23.8036C23.4984 24.064 23.5396 24.3315 23.5507 24.6011C23.6122 24.8465 23.8581 26.0735 23.6122 24.9692C23.9196 26.2575 23.9196 27.6686 24.1041 28.9569C24.2886 30.2453 24.4116 31.779 24.5345 33.1901C25.1494 38.8956 25.7643 44.6011 26.3178 50.368C26.3659 51.3794 26.7812 52.3389 27.4861 53.0674C27.8378 53.4256 28.2593 53.7084 28.7246 53.8983C29.1898 54.0882 29.689 54.1812 30.1916 54.1717C32.0978 54.1103 34.25 52.5152 34.004 50.368C33.4506 44.5398 32.8357 38.7115 32.2208 32.8833C31.6059 27.0551 31.3599 21.1655 29.2693 15.7667C29.0819 15.1329 28.7349 14.5577 28.2612 14.0958C27.7875 13.634 27.2031 13.301 26.5637 13.1287C25.917 12.9478 25.2334 12.9434 24.5844 13.1161C23.9354 13.2888 23.3448 13.6321 22.8743 14.1103C18.3855 18.2821 15.1265 23.4968 11.9905 28.6502H18.6315C17.022 25.5869 15.0839 22.7071 12.8514 20.0612C11.767 18.7572 10.6177 17.5082 9.40796 16.3189C8.74186 15.6421 7.99896 15.045 7.19431 14.5397C6.47537 14.0823 5.64959 13.8191 4.79798 13.7761C3.94637 13.7331 3.09817 13.9117 2.33659 14.2944C-0.368976 15.6441 -4.66106e-05 18.8956 -4.66106e-05 21.4109V50.9815C-0.0691838 51.5257 -0.0214063 52.0784 0.140111 52.6028C0.301629 53.1272 0.573197 53.6113 0.936736 54.0229C1.30028 54.4344 1.74747 54.7641 2.24858 54.9899C2.74969 55.2157 3.29324 55.3325 3.84309 55.3325C4.39294 55.3325 4.9365 55.2157 5.43761 54.9899C5.93873 54.7641 6.38592 54.4344 6.74946 54.0229C7.113 53.6113 7.38455 53.1272 7.54607 52.6028C7.70758 52.0784 7.75536 51.5257 7.68622 50.9815V50.9815Z" fill="#FF7777"/>
    </g>
    <defs>
    <clipPath id="clip0_1860_2553">
    <rect width="261.702" height="60" fill="white"/>
    </clipPath>
    </defs>
    </svg>
    