<svg width="135" height="40" viewBox="0 0 135 40" fill="none" xmlns="http://www.w3.org/2000/svg">
    <path d="M130 -9.15527e-05H5C2.23858 -9.15527e-05 0 2.23848 0 4.99991V34.9999C0 37.7613 2.23858 39.9999 5 39.9999H130C132.761 39.9999 135 37.7613 135 34.9999V4.99991C135 2.23848 132.761 -9.15527e-05 130 -9.15527e-05Z" fill="black"/>
    <path d="M130 0.799922C131.114 0.801208 132.181 1.24415 132.968 2.03157C133.756 2.81899 134.199 3.88658 134.2 5.00012V35.0001C134.199 36.1137 133.756 37.1812 132.968 37.9687C132.181 38.7561 131.114 39.199 130 39.2003H5C3.88645 39.199 2.81888 38.7561 2.0315 37.9687C1.24412 37.1813 0.801231 36.1137 0.8 35.0001V5.00012C0.801212 3.88657 1.24409 2.81896 2.03148 2.03154C2.81886 1.24412 3.88644 0.801187 5 0.799922H130ZM130 0.00012207H5C3.67511 0.00400017 2.40559 0.53203 1.46875 1.46887C0.531908 2.40571 0.0038781 3.67523 0 5.00012L0 35.0001C0.0038781 36.325 0.531908 37.5945 1.46875 38.5314C2.40559 39.4682 3.67511 39.9962 5 40.0001H130C131.325 39.9962 132.594 39.4682 133.531 38.5314C134.468 37.5945 134.996 36.325 135 35.0001V5.00012C134.996 3.67523 134.468 2.40571 133.531 1.46887C132.594 0.53203 131.325 0.00400017 130 0.00012207Z" fill="#A6A6A6"/>
    <path d="M47.4184 10.2432C47.4366 10.6102 47.3799 10.977 47.2518 11.3213C47.1237 11.6656 46.9268 11.9803 46.6732 12.2461C46.389 12.5409 46.0457 12.7723 45.6659 12.9253C45.2861 13.0783 44.8783 13.1493 44.4691 13.1338C44.0573 13.1375 43.649 13.0588 43.268 12.9024C42.8871 12.7461 42.5412 12.5151 42.2508 12.2231C41.9604 11.9312 41.7313 11.5841 41.5769 11.2023C41.4226 10.8206 41.3461 10.4118 41.352 10C41.3462 9.58825 41.4227 9.17947 41.577 8.79769C41.7314 8.41591 41.9605 8.06882 42.2509 7.77683C42.5413 7.48484 42.8871 7.25383 43.268 7.09736C43.649 6.9409 44.0573 6.86214 44.4691 6.86572C44.8925 6.86444 45.3116 6.95004 45.7006 7.11722C46.0619 7.26366 46.3834 7.49336 46.6391 7.78762L46.1117 8.31542C45.9107 8.07887 45.6581 7.89165 45.3733 7.76822C45.0885 7.64479 44.7791 7.58844 44.4691 7.60352C44.157 7.6019 43.8478 7.66329 43.56 7.784C43.2722 7.90471 43.0118 8.08226 42.7942 8.30602C42.5767 8.52978 42.4065 8.79515 42.2939 9.08623C42.1814 9.3773 42.1287 9.68811 42.1391 10C42.1317 10.4672 42.2631 10.9261 42.5168 11.3185C42.7705 11.7109 43.135 12.0191 43.5641 12.204C43.9932 12.389 44.4676 12.4423 44.927 12.3573C45.3865 12.2723 45.8104 12.0528 46.1449 11.7266C46.4528 11.3949 46.6313 10.9635 46.6478 10.5112H44.4691V9.79052H47.3764C47.4039 9.93986 47.4179 10.0914 47.4184 10.2432Z" fill="white" stroke="white" stroke-width="0.2" stroke-miterlimit="10"/>
    <path d="M52.0277 7.7373H49.2953V9.6396H51.7592V10.3604H49.2953V12.2627H52.0277V13H48.5248V7H52.0277V7.7373Z" fill="white" stroke="white" stroke-width="0.2" stroke-miterlimit="10"/>
    <path d="M55.2787 13H54.5072V7.7373H52.8314V7H56.9545V7.7373H55.2787V13Z" fill="white" stroke="white" stroke-width="0.2" stroke-miterlimit="10"/>
    <path d="M59.9379 13V7H60.7084V13H59.9379Z" fill="white" stroke="white" stroke-width="0.2" stroke-miterlimit="10"/>
    <path d="M64.1283 13H63.3568V7.7373H61.6811V7H65.8041V7.7373H64.1283V13Z" fill="white" stroke="white" stroke-width="0.2" stroke-miterlimit="10"/>
    <path d="M73.6093 12.2246C73.0253 12.8069 72.2343 13.1338 71.4096 13.1338C70.5849 13.1338 69.7939 12.8069 69.2099 12.2246C68.921 11.932 68.6939 11.5843 68.542 11.2021C68.3902 10.8199 68.3168 10.4111 68.3261 10C68.3168 9.58891 68.3902 9.18011 68.542 8.79795C68.6939 8.41578 68.921 8.06805 69.2099 7.77542C69.4986 7.48669 69.8413 7.25772 70.2186 7.10162C70.5958 6.94552 71.0002 6.86536 71.4085 6.86572C71.8167 6.86609 72.2209 6.94697 72.5979 7.10373C72.9749 7.2605 73.3173 7.49008 73.6054 7.77932C73.8945 8.07118 74.1221 8.41814 74.2746 8.79961C74.4271 9.18107 74.5014 9.58929 74.4931 10C74.5022 10.4111 74.4286 10.8198 74.2768 11.202C74.125 11.5841 73.898 11.9318 73.6093 12.2246ZM69.7792 11.7222C70.2117 12.154 70.7979 12.3965 71.4091 12.3965C72.0203 12.3965 72.6065 12.154 73.039 11.7222C73.2608 11.4951 73.4343 11.2255 73.5489 10.9294C73.6635 10.6334 73.717 10.3173 73.706 10C73.717 9.68278 73.6635 9.36661 73.5489 9.0706C73.4343 8.7746 73.2608 8.5049 73.039 8.27782C72.6065 7.84603 72.0203 7.60351 71.4091 7.60351C70.7979 7.60351 70.2117 7.84603 69.7792 8.27782C69.5577 8.50508 69.3845 8.77483 69.2701 9.07081C69.1556 9.36679 69.1022 9.68287 69.1132 10C69.1022 10.3172 69.1556 10.6333 69.2701 10.9292C69.3845 11.2252 69.5577 11.495 69.7792 11.7222Z" fill="white" stroke="white" stroke-width="0.2" stroke-miterlimit="10"/>
    <path d="M75.5751 13V7H76.5136L79.4296 11.6675H79.4628L79.4296 10.5112V7H80.2011V13H79.3964L76.3456 8.1064H76.3124L76.3456 9.2627V13H75.5751Z" fill="white" stroke="white" stroke-width="0.2" stroke-miterlimit="10"/>
    <path d="M68.1358 21.7516C67.2953 21.7548 66.4746 22.007 65.7773 22.4762C65.08 22.9455 64.5373 23.6109 64.2179 24.3883C63.8984 25.1658 63.8165 26.0204 63.9825 26.8444C64.1484 27.6684 64.5547 28.4247 65.1502 29.0179C65.7457 29.6111 66.5035 30.0146 67.3281 30.1774C68.1527 30.3402 69.0071 30.255 69.7833 29.9326C70.5595 29.6102 71.2228 29.0651 71.6895 28.366C72.1561 27.6669 72.4051 26.8452 72.4051 26.0047C72.4134 25.4425 72.3085 24.8844 72.0966 24.3636C71.8848 23.8428 71.5704 23.3699 71.1721 22.9731C70.7737 22.5763 70.2997 22.2637 69.7781 22.0539C69.2564 21.844 68.698 21.7412 68.1358 21.7516ZM68.1358 28.5824C67.6182 28.6193 67.1014 28.4995 66.6528 28.2386C66.2043 27.9778 65.8446 27.5879 65.6207 27.1197C65.3968 26.6515 65.3191 26.1268 65.3976 25.6139C65.4761 25.1009 65.7072 24.6234 66.0608 24.2437C66.4145 23.8639 66.8743 23.5994 67.3804 23.4846C67.8865 23.3698 68.4154 23.41 68.8983 23.6001C69.3812 23.7901 69.7957 24.1211 70.0878 24.55C70.3799 24.9789 70.5362 25.4858 70.5362 26.0047C70.5519 26.3326 70.5019 26.6602 70.389 26.9684C70.2762 27.2766 70.1028 27.5592 69.8792 27.7994C69.6555 28.0396 69.386 28.2326 69.0866 28.3671C68.7872 28.5015 68.4639 28.5748 68.1358 28.5824ZM58.8224 21.7516C57.9819 21.7548 57.1612 22.0069 56.4638 22.4762C55.7665 22.9455 55.2239 23.6108 54.9044 24.3883C54.585 25.1657 54.503 26.0204 54.6689 26.8444C54.8349 27.6683 55.2412 28.4247 55.8367 29.0179C56.4321 29.6111 57.19 30.0146 58.0146 30.1774C58.8392 30.3402 59.6936 30.255 60.4698 29.9326C61.246 29.6103 61.9093 29.0651 62.376 28.366C62.8426 27.6669 63.0916 26.8452 63.0916 26.0047C63.0999 25.4425 62.995 24.8845 62.7831 24.3637C62.5713 23.8429 62.2569 23.37 61.8586 22.9732C61.4603 22.5764 60.9862 22.2637 60.4646 22.0539C59.943 21.844 59.3845 21.7412 58.8224 21.7516ZM58.8224 28.5824C58.3048 28.6193 57.788 28.4995 57.3394 28.2386C56.8909 27.9778 56.5312 27.5879 56.3073 27.1197C56.0834 26.6515 56.0057 26.1268 56.0842 25.6139C56.1627 25.1009 56.3938 24.6234 56.7474 24.2437C57.1011 23.8639 57.5609 23.5994 58.067 23.4846C58.573 23.3698 59.102 23.41 59.5849 23.6001C60.0678 23.7901 60.4823 24.1211 60.7744 24.55C61.0665 24.9789 61.2228 25.4858 61.2228 26.0047C61.2385 26.3326 61.1885 26.6602 61.0757 26.9684C60.9628 27.2767 60.7895 27.5592 60.5658 27.7994C60.3421 28.0396 60.0726 28.2326 59.7732 28.3671C59.4738 28.5016 59.1505 28.5748 58.8224 28.5824ZM47.7436 23.0566V24.8609H52.0613C51.999 25.7072 51.6527 26.5077 51.0785 27.1325C50.6458 27.5735 50.1255 27.919 49.5511 28.1465C48.9767 28.374 48.3609 28.4786 47.7436 28.4535C46.4816 28.4364 45.277 27.9231 44.3906 27.0246C43.5042 26.1261 43.0073 24.9148 43.0073 23.6526C43.0073 22.3905 43.5042 21.1791 44.3906 20.2806C45.277 19.3821 46.4816 18.8688 47.7436 18.8517C48.9558 18.8359 50.1253 19.299 50.998 20.1405L52.2707 18.8678C51.6753 18.2783 50.9681 17.8137 50.1907 17.501C49.4134 17.1884 48.5814 17.0342 47.7436 17.0473C46.8681 17.0346 45.9988 17.196 45.1862 17.5222C44.3737 17.8485 43.6341 18.333 43.0104 18.9476C42.3868 19.5622 41.8916 20.2947 41.5535 21.1024C41.2155 21.9101 41.0414 22.777 41.0414 23.6526C41.0414 24.5282 41.2155 25.3951 41.5535 26.2028C41.8916 27.0105 42.3868 27.743 43.0104 28.3576C43.6341 28.9723 44.3737 29.4568 45.1862 29.783C45.9988 30.1092 46.8681 30.2707 47.7436 30.2579C48.5991 30.2934 49.4523 30.1465 50.2467 29.8271C51.0411 29.5077 51.7584 29.023 52.3512 28.4052C53.4036 27.2565 53.9646 25.7414 53.914 24.1843C53.9181 23.8062 53.8857 23.4285 53.8172 23.0566H47.7436ZM93.0519 24.4581C92.7963 23.6877 92.3097 23.0147 91.6583 22.5305C91.0069 22.0463 90.2223 21.7743 89.4109 21.7516C88.8644 21.755 88.3243 21.8692 87.8232 22.0872C87.3222 22.3053 86.8705 22.6226 86.4955 23.0202C86.1206 23.4177 85.8301 23.8872 85.6417 24.4002C85.4534 24.9131 85.371 25.459 85.3995 26.0047C85.3872 26.5639 85.4877 27.1198 85.6951 27.6393C85.9024 28.1587 86.2123 28.6311 86.6063 29.0281C87.0003 29.4251 87.4703 29.7386 87.9881 29.9499C88.506 30.1612 89.0611 30.266 89.6204 30.2579C90.3211 30.2618 91.0117 30.0916 91.6303 29.7626C92.2489 29.4336 92.7761 28.9561 93.1646 28.373L91.7147 27.4064C91.4975 27.7671 91.1902 28.0652 90.8231 28.2714C90.4559 28.4776 90.0415 28.5847 89.6204 28.5824C89.1871 28.599 88.7588 28.485 88.3911 28.2552C88.0234 28.0254 87.7332 27.6904 87.5582 27.2936L93.2453 24.9415L93.0519 24.4581ZM87.2522 25.8759C87.2322 25.5664 87.2741 25.2559 87.3755 24.9627C87.4769 24.6696 87.6357 24.3996 87.8428 24.1686C88.0498 23.9375 88.3008 23.7501 88.5811 23.6173C88.8614 23.4844 89.1654 23.4088 89.4753 23.3949C89.798 23.3737 90.1198 23.4479 90.4006 23.6084C90.6813 23.7688 90.9087 24.0083 91.0542 24.2971L87.2522 25.8759ZM82.6284 30.0001H84.4972V17.4985H82.6284V30.0001ZM79.5674 22.7021H79.503C79.2189 22.3934 78.8721 22.149 78.486 21.985C78.0998 21.8211 77.683 21.7415 77.2636 21.7516C76.1669 21.7983 75.1306 22.2668 74.3711 23.0593C73.6116 23.8518 73.1876 24.9071 73.1876 26.0048C73.1876 27.1025 73.6116 28.1577 74.3711 28.9502C75.1306 29.7427 76.1669 30.2112 77.2636 30.2579C77.6847 30.2691 78.1031 30.1884 78.4899 30.0215C78.8766 29.8546 79.2223 29.6054 79.503 29.2913H79.5674V29.9035C79.5674 31.5307 78.6975 32.4006 77.2958 32.4006C76.8287 32.3894 76.3754 32.2394 75.9939 31.9697C75.6123 31.7 75.3196 31.3228 75.1532 30.8862L73.526 31.5629C73.8327 32.3096 74.3553 32.9477 75.027 33.3954C75.6986 33.8432 76.4886 34.0802 77.2958 34.0761C79.4869 34.0761 81.3396 32.7873 81.3396 29.6457V22.0093H79.5674V22.7021ZM77.4248 28.5824C76.7789 28.5276 76.177 28.2324 75.7384 27.755C75.2999 27.2776 75.0565 26.653 75.0565 26.0048C75.0565 25.3565 75.2999 24.7319 75.7384 24.2545C76.177 23.7772 76.7789 23.4819 77.4248 23.4271C77.7462 23.4428 78.0611 23.523 78.3508 23.663C78.6404 23.803 78.899 23.9999 79.111 24.2419C79.3229 24.484 79.484 24.7662 79.5846 25.0718C79.6851 25.3775 79.7231 25.7002 79.6963 26.0208C79.7214 26.3394 79.682 26.6599 79.5805 26.9629C79.4789 27.266 79.3173 27.5454 79.1052 27.7846C78.8931 28.0237 78.635 28.2176 78.3463 28.3547C78.0576 28.4918 77.7442 28.5692 77.4248 28.5824ZM101.806 17.4987H97.3346V30.0001H99.2003V25.2637H101.806C102.334 25.2926 102.862 25.2137 103.358 25.0316C103.854 24.8496 104.308 24.5683 104.692 24.2049C105.076 23.8416 105.381 23.4038 105.59 22.9183C105.799 22.4328 105.907 21.9098 105.907 21.3812C105.907 20.8527 105.799 20.3297 105.59 19.8442C105.381 19.3587 105.076 18.9209 104.692 18.5575C104.308 18.1941 103.854 17.9128 103.358 17.7308C102.862 17.5487 102.334 17.4698 101.806 17.4987ZM101.854 23.5239H99.2003V19.2386H101.854C102.139 19.2327 102.423 19.2838 102.688 19.3888C102.953 19.4938 103.194 19.6507 103.398 19.8502C103.602 20.0498 103.764 20.288 103.874 20.5509C103.985 20.8138 104.042 21.0961 104.042 21.3813C104.042 21.6664 103.985 21.9487 103.874 22.2116C103.764 22.4745 103.602 22.7127 103.398 22.9123C103.194 23.1118 102.953 23.2687 102.688 23.3737C102.423 23.4788 102.139 23.5298 101.854 23.5239ZM113.386 21.7286C112.705 21.6889 112.027 21.8488 111.435 22.1888C110.844 22.5287 110.365 23.034 110.056 23.6425L111.713 24.3341C111.877 24.0321 112.126 23.7845 112.429 23.6217C112.732 23.4588 113.075 23.3878 113.418 23.4173C113.891 23.3711 114.363 23.5144 114.731 23.8159C115.099 24.1174 115.332 24.5524 115.38 25.0256V25.1543C114.781 24.836 114.112 24.6703 113.434 24.6718C111.649 24.6718 109.831 25.6529 109.831 27.4864C109.849 27.8728 109.943 28.2518 110.11 28.6009C110.277 28.95 110.512 29.262 110.801 29.5185C111.091 29.775 111.429 29.9708 111.795 30.0941C112.162 30.2175 112.55 30.2659 112.935 30.2366C113.405 30.2643 113.874 30.1655 114.292 29.9505C114.711 29.7355 115.064 29.4122 115.316 29.0143H115.38V29.9793H117.181V25.1865C117.181 22.967 115.525 21.7286 113.386 21.7286ZM113.161 28.58C112.549 28.58 111.697 28.2745 111.697 27.5185C111.697 26.5536 112.758 26.1836 113.675 26.1836C114.271 26.1678 114.859 26.3122 115.38 26.6018C115.311 27.1441 115.049 27.6431 114.641 28.0068C114.233 28.3705 113.707 28.5741 113.161 28.58ZM123.743 22.002L121.604 27.422H121.54L119.32 22.002H117.31L120.639 29.5772L118.741 33.791H120.687L125.818 22.002H123.743ZM106.936 30.0001H108.802V17.4987H106.936V30.0001Z" fill="white"/>
    <path d="M10.4353 7.53799C10.1074 7.93007 9.94182 8.43269 9.97251 8.94289V31.059C9.94173 31.5692 10.1073 32.0719 10.4353 32.4639L10.5093 32.536L22.8983 20.1471V19.8548L10.5093 7.46539L10.4353 7.53799Z" fill="url(#paint0_linear_1860_2569)"/>
    <path d="M27.0277 24.2785L22.8983 20.1471V19.8548L27.0287 15.7244L27.1218 15.7775L32.0146 18.5576C33.4122 19.3516 33.4122 20.6508 32.0146 21.4453L27.1218 24.2254L27.0277 24.2785Z" fill="url(#paint1_linear_1860_2569)"/>
    <path d="M27.1218 24.2249L22.8983 20.001L10.4353 32.4639C10.7201 32.7151 11.0837 32.8587 11.4633 32.8699C11.8428 32.8811 12.2143 32.7592 12.5134 32.5253L27.1218 24.2249Z" fill="url(#paint2_linear_1860_2569)"/>
    <path d="M27.1218 15.777L12.5134 7.4766C12.2143 7.24269 11.8428 7.12078 11.4633 7.132C11.0837 7.14321 10.7201 7.28684 10.4353 7.538L22.8983 20.001L27.1218 15.777Z" fill="url(#paint3_linear_1860_2569)"/>
    <path opacity="0.2" d="M27.0287 24.1319L12.5134 32.3792C12.2258 32.5981 11.8748 32.7176 11.5134 32.7195C11.152 32.7214 10.7997 32.6057 10.5098 32.3899L10.4353 32.4644L10.5093 32.5365L10.5098 32.536C10.7997 32.752 11.1519 32.8677 11.5134 32.8658C11.8749 32.8639 12.2259 32.7443 12.5134 32.5253L27.1218 24.2249L27.0287 24.1319Z" fill="black"/>
    <path opacity="0.12" d="M10.4353 32.3183C10.1074 31.9262 9.94186 31.4236 9.97251 30.9134V31.0595C9.94184 31.5697 10.1074 32.0723 10.4353 32.4644L10.5098 32.3899L10.4353 32.3183Z" fill="black"/>
    <path opacity="0.12" d="M32.0146 21.2987L27.0287 24.1319L27.1218 24.2249L32.0146 21.4448C32.3024 21.3199 32.5515 21.1201 32.7358 20.8663C32.9202 20.6124 33.0331 20.3137 33.0629 20.0014C33.001 20.2842 32.8741 20.5488 32.6921 20.774C32.5101 20.9992 32.2781 21.1788 32.0146 21.2987Z" fill="black"/>
    <path opacity="0.25" d="M12.5134 7.62322L32.0146 18.7032C32.2783 18.8231 32.5103 19.0028 32.6923 19.2281C32.8743 19.4534 33.0012 19.7181 33.0629 20.001C33.0334 19.6886 32.9205 19.3898 32.7361 19.1358C32.5517 18.8818 32.3026 18.682 32.0146 18.5571L12.5134 7.47712C11.1158 6.68302 9.9725 7.34262 9.9725 8.94342V9.08952C9.9725 7.48882 11.1158 6.82922 12.5134 7.62322Z" fill="white"/>
    <defs>
    <linearGradient id="paint0_linear_1860_2569" x1="21.7996" y1="8.7097" x2="5.01724" y2="25.4921" gradientUnits="userSpaceOnUse">
    <stop stop-color="#00A0FF"/>
    <stop offset="0.00657" stop-color="#00A1FF"/>
    <stop offset="0.2601" stop-color="#00BEFF"/>
    <stop offset="0.5122" stop-color="#00D2FF"/>
    <stop offset="0.7604" stop-color="#00DFFF"/>
    <stop offset="1" stop-color="#00E3FF"/>
    </linearGradient>
    <linearGradient id="paint1_linear_1860_2569" x1="33.8343" y1="20.0014" x2="9.6374" y2="20.0014" gradientUnits="userSpaceOnUse">
    <stop stop-color="#FFE000"/>
    <stop offset="0.4087" stop-color="#FFBD00"/>
    <stop offset="0.7754" stop-color="#FFA500"/>
    <stop offset="1" stop-color="#FF9C00"/>
    </linearGradient>
    <linearGradient id="paint2_linear_1860_2569" x1="24.8269" y1="22.2961" x2="2.06857" y2="45.0544" gradientUnits="userSpaceOnUse">
    <stop stop-color="#FF3A44"/>
    <stop offset="1" stop-color="#C31162"/>
    </linearGradient>
    <linearGradient id="paint3_linear_1860_2569" x1="7.29723" y1="0.176176" x2="17.4598" y2="10.3387" gradientUnits="userSpaceOnUse">
    <stop stop-color="#32A071"/>
    <stop offset="0.0685" stop-color="#2DA771"/>
    <stop offset="0.4762" stop-color="#15CF74"/>
    <stop offset="0.8009" stop-color="#06E775"/>
    <stop offset="1" stop-color="#00F076"/>
    </linearGradient>
    </defs>
    </svg>
    